HIERARCHY
ROOT Hips
{
	OFFSET 0.000000 97.167313 0.000000
	CHANNELS 6 Xposition Yposition Zposition Xrotation Yrotation Zrotation
	JOINT Spine
	{
		OFFSET 0.000000 13.784798 0.064400
		CHANNELS 3 Xrotation Yrotation Zrotation
		JOINT Spine1
		{
			OFFSET 0.000000 12.037903 0.404700
			CHANNELS 3 Xrotation Yrotation Zrotation
			JOINT Spine2
			{
				OFFSET 0.000000 17.795601 0.420200
				CHANNELS 3 Xrotation Yrotation Zrotation
				JOINT Neck
				{
					OFFSET 0.000000 39.131302 11.954600
					CHANNELS 3 Xrotation Yrotation Zrotation
					JOINT Head
					{
						OFFSET 0.000000 14.456192 15.627699
						CHANNELS 3 Xrotation Yrotation Zrotation
						JOINT HeadTop_End
						{
							OFFSET 0.000000 15.703506 7.603401
							CHANNELS 3 Xrotation Yrotation Zrotation
							End Site
							{
								OFFSET 0.000000 17.447403 0.000000
							}
						}
					}
				}
				JOINT LeftShoulder
				{
					OFFSET 17.399500 24.608795 1.168800
					CHANNELS 3 Xrotation Yrotation Zrotation
					JOINT LeftArm
					{
						OFFSET 18.980635 5.765305 1.818600
						CHANNELS 3 Xrotation Yrotation Zrotation
						JOINT LeftForeArm
						{
							OFFSET 49.290169 0.000000 0.000000
							CHANNELS 3 Xrotation Yrotation Zrotation
							JOINT LeftHand
							{
								OFFSET 31.562012 0.000000 0.000000
								CHANNELS 3 Xrotation Yrotation Zrotation
								JOINT LeftHandThumb1
								{
									OFFSET 6.133995 -4.388519 7.076070
									CHANNELS 3 Xrotation Yrotation Zrotation
									JOINT LeftHandThumb2
									{
										OFFSET 6.037666 -3.485840 3.485847
										CHANNELS 3 Xrotation Yrotation Zrotation
										JOINT LeftHandThumb3
										{
											OFFSET 6.496506 -3.750763 3.750761
											CHANNELS 3 Xrotation Yrotation Zrotation
											JOINT LeftHandThumb4
											{
												OFFSET 5.616882 -3.242905 3.242910
												CHANNELS 3 Xrotation Yrotation Zrotation
												End Site
												{
													OFFSET -1.254608 7.132141 0.375429
												}
											}
										}
									}
								}
								JOINT LeftHandPinky1
								{
									OFFSET 18.920792 -0.453171 -11.426712
									CHANNELS 3 Xrotation Yrotation Zrotation
									JOINT LeftHandPinky2
									{
										OFFSET 4.919586 0.000000 0.000000
										CHANNELS 3 Xrotation Yrotation Zrotation
										JOINT LeftHandPinky3
										{
											OFFSET 5.233047 0.000000 0.000000
											CHANNELS 3 Xrotation Yrotation Zrotation
											JOINT LeftHandPinky4
											{
												OFFSET 5.571716 0.000000 0.000000
												CHANNELS 3 Xrotation Yrotation Zrotation
												End Site
												{
													OFFSET -3.459808 4.342407 -0.466164
												}
											}
										}
									}
								}
								JOINT LeftHandRing1
								{
									OFFSET 22.726120 -0.094986 -6.500475
									CHANNELS 3 Xrotation Yrotation Zrotation
									JOINT LeftHandRing2
									{
										OFFSET 6.408615 0.000000 0.000000
										CHANNELS 3 Xrotation Yrotation Zrotation
										JOINT LeftHandRing3
										{
											OFFSET 6.150223 0.000000 0.000000
											CHANNELS 3 Xrotation Yrotation Zrotation
											JOINT LeftHandRing4
											{
												OFFSET 6.145386 0.000000 0.000000
												CHANNELS 3 Xrotation Yrotation Zrotation
												End Site
												{
													OFFSET -3.671402 4.923981 -0.202372
												}
											}
										}
									}
								}
								JOINT LeftHandMiddle1
								{
									OFFSET 23.373947 0.000000 0.000001
									CHANNELS 3 Xrotation Yrotation Zrotation
									JOINT LeftHandMiddle2
									{
										OFFSET 6.996567 0.000000 0.000000
										CHANNELS 3 Xrotation Yrotation Zrotation
										JOINT LeftHandMiddle3
										{
											OFFSET 7.015945 0.000000 0.000000
											CHANNELS 3 Xrotation Yrotation Zrotation
											JOINT LeftHandMiddle4
											{
												OFFSET 7.721573 0.000000 0.000000
												CHANNELS 3 Xrotation Yrotation Zrotation
												End Site
												{
													OFFSET -4.651108 6.158463 0.251582
												}
											}
										}
									}
								}
								JOINT LeftHandIndex1
								{
									OFFSET 21.310577 -0.490082 6.209344
									CHANNELS 3 Xrotation Yrotation Zrotation
									JOINT LeftHandIndex2
									{
										OFFSET 7.536453 0.000000 0.000000
										CHANNELS 3 Xrotation Yrotation Zrotation
										JOINT LeftHandIndex3
										{
											OFFSET 7.512344 0.000000 0.000000
											CHANNELS 3 Xrotation Yrotation Zrotation
											JOINT LeftHandIndex4
											{
												OFFSET 10.212402 0.000000 0.000001
												CHANNELS 3 Xrotation Yrotation Zrotation
												End Site
												{
													OFFSET -5.180801 8.690506 1.388433
												}
											}
										}
									}
								}
							}
						}
					}
				}
				JOINT RightShoulder
				{
					OFFSET -17.399500 24.608795 1.168800
					CHANNELS 3 Xrotation Yrotation Zrotation
					JOINT RightArm
					{
						OFFSET -18.980635 5.765305 1.818600
						CHANNELS 3 Xrotation Yrotation Zrotation
						JOINT RightForeArm
						{
							OFFSET -49.290169 0.000000 0.000000
							CHANNELS 3 Xrotation Yrotation Zrotation
							JOINT RightHand
							{
								OFFSET -31.562012 0.000000 0.000000
								CHANNELS 3 Xrotation Yrotation Zrotation
								JOINT RightHandThumb1
								{
									OFFSET -6.133995 -4.388519 7.076070
									CHANNELS 3 Xrotation Yrotation Zrotation
									JOINT RightHandThumb2
									{
										OFFSET -6.037666 -3.485840 3.485847
										CHANNELS 3 Xrotation Yrotation Zrotation
										JOINT RightHandThumb3
										{
											OFFSET -6.496506 -3.750763 3.750761
											CHANNELS 3 Xrotation Yrotation Zrotation
											JOINT RightHandThumb4
											{
												OFFSET -5.616882 -3.242905 3.242910
												CHANNELS 3 Xrotation Yrotation Zrotation
												End Site
												{
													OFFSET 1.254608 7.132141 0.375429
												}
											}
										}
									}
								}
								JOINT RightHandIndex1
								{
									OFFSET -21.310577 -0.490082 6.209344
									CHANNELS 3 Xrotation Yrotation Zrotation
									JOINT RightHandIndex2
									{
										OFFSET -7.536453 0.000000 0.000000
										CHANNELS 3 Xrotation Yrotation Zrotation
										JOINT RightHandIndex3
										{
											OFFSET -7.512344 0.000000 0.000000
											CHANNELS 3 Xrotation Yrotation Zrotation
											JOINT RightHandIndex4
											{
												OFFSET -10.212402 0.000000 0.000001
												CHANNELS 3 Xrotation Yrotation Zrotation
												End Site
												{
													OFFSET 5.180801 8.690506 1.388433
												}
											}
										}
									}
								}
								JOINT RightHandMiddle1
								{
									OFFSET -23.373947 0.000000 0.000001
									CHANNELS 3 Xrotation Yrotation Zrotation
									JOINT RightHandMiddle2
									{
										OFFSET -6.996567 0.000000 0.000000
										CHANNELS 3 Xrotation Yrotation Zrotation
										JOINT RightHandMiddle3
										{
											OFFSET -7.015945 0.000000 0.000000
											CHANNELS 3 Xrotation Yrotation Zrotation
											JOINT RightHandMiddle4
											{
												OFFSET -7.721573 0.000000 0.000000
												CHANNELS 3 Xrotation Yrotation Zrotation
												End Site
												{
													OFFSET 4.651108 6.158463 0.251582
												}
											}
										}
									}
								}
								JOINT RightHandRing1
								{
									OFFSET -22.726120 -0.094986 -6.500475
									CHANNELS 3 Xrotation Yrotation Zrotation
									JOINT RightHandRing2
									{
										OFFSET -6.408615 0.000000 0.000000
										CHANNELS 3 Xrotation Yrotation Zrotation
										JOINT RightHandRing3
										{
											OFFSET -6.150223 0.000000 0.000000
											CHANNELS 3 Xrotation Yrotation Zrotation
											JOINT RightHandRing4
											{
												OFFSET -6.145386 0.000000 0.000000
												CHANNELS 3 Xrotation Yrotation Zrotation
												End Site
												{
													OFFSET 3.671402 4.923981 -0.202372
												}
											}
										}
									}
								}
								JOINT RightHandPinky1
								{
									OFFSET -18.920792 -0.453171 -11.426712
									CHANNELS 3 Xrotation Yrotation Zrotation
									JOINT RightHandPinky2
									{
										OFFSET -4.919586 0.000000 0.000000
										CHANNELS 3 Xrotation Yrotation Zrotation
										JOINT RightHandPinky3
										{
											OFFSET -5.233047 0.000000 0.000000
											CHANNELS 3 Xrotation Yrotation Zrotation
											JOINT RightHandPinky4
											{
												OFFSET -5.571716 0.000000 0.000000
												CHANNELS 3 Xrotation Yrotation Zrotation
												End Site
												{
													OFFSET 3.459808 4.342407 -0.466164
												}
											}
										}
									}
								}
							}
						}
					}
				}
			}
		}
	}
	JOINT LeftUpLeg
	{
		OFFSET 19.899099 -7.885101 -3.429500
		CHANNELS 3 Xrotation Yrotation Zrotation
		JOINT LeftLeg
		{
			OFFSET 1.745560 -36.997807 10.304700
			CHANNELS 3 Xrotation Yrotation Zrotation
			JOINT LeftFoot
			{
				OFFSET -1.745558 -29.803308 -13.615400
				CHANNELS 3 Xrotation Yrotation Zrotation
				JOINT LeftToeBase
				{
					OFFSET 1.181900 -18.539904 15.226099
					CHANNELS 3 Xrotation Yrotation Zrotation
					JOINT LeftToe_End
					{
						OFFSET -0.863701 1.402801 16.534700
						CHANNELS 3 Xrotation Yrotation Zrotation
						End Site
						{
							OFFSET 0.000000 16.616566 0.000000
						}
					}
				}
			}
		}
	}
	JOINT RightUpLeg
	{
		OFFSET -19.899099 -7.885101 -3.429500
		CHANNELS 3 Xrotation Yrotation Zrotation
		JOINT RightLeg
		{
			OFFSET -1.745560 -36.997807 10.304700
			CHANNELS 3 Xrotation Yrotation Zrotation
			JOINT RightFoot
			{
				OFFSET 1.745558 -29.803308 -13.615400
				CHANNELS 3 Xrotation Yrotation Zrotation
				JOINT RightToeBase
				{
					OFFSET -1.181900 -18.539904 15.226099
					CHANNELS 3 Xrotation Yrotation Zrotation
					JOINT RightToe_End
					{
						OFFSET 0.863701 1.402801 16.534700
						CHANNELS 3 Xrotation Yrotation Zrotation
						End Site
						{
							OFFSET 0.000000 16.616566 0.000000
						}
					}
				}
			}
		}
	}
}
MOTION
Frames: 4
Frame Time: 0.033333
0.579719 50.562729 20.949892 0.146323 0.050634 0.848362 10.430358 0.145917 -1.476445 -0.199109 0.213201 -0.354815 -0.199434 0.248274 -0.300818 -1.001766 -1.291723 0.469465 -8.883575 -4.334370 -5.322576 -0.000000 -0.000000 0.000000 0.823528 -15.262001 -7.868733 4.746631 -21.216381 -54.862081 0.000037 -62.197581 0.000017 31.062847 4.315245 41.770606 6.610918 1.797425 20.801473 2.714653 20.173814 -24.388985 -5.537286 29.849300 5.070850 0.000000 0.000006 0.000000 2.041368 10.867816 -13.918735 0.168519 1.396427 -13.761413 0.107163 1.116556 -10.963957 0.000002 0.000003 -0.000000 1.797187 9.807900 -14.183304 0.205944 1.541192 -15.221391 0.265329 1.744750 -17.292367 -0.000002 -0.000002 0.000005 1.299110 7.334308 -16.510676 0.329973 1.940130 -19.302647 0.233131 1.637803 -16.201666 0.000002 0.000000 0.000004 -0.234722 2.798118 -26.913131 0.396832 2.121282 -21.189436 0.083144 0.984459 -9.653324 0.000000 0.000001 0.000002 3.171143 -4.378832 8.782764 -3.950115 37.253587 63.733984 0.000037 55.139417 -0.000032 43.537774 4.740137 -36.277638 -9.386694 -1.614438 -17.606375 3.557288 -24.336850 34.656909 -6.608518 -37.497301 -11.176201 0.000001 -0.000001 -0.000002 2.957407 1.012641 13.537425 0.472451 -2.045692 26.006584 0.059750 -0.744427 9.177955 -0.000000 -0.000002 0.000003 0.105499 -3.664354 2.525125 0.584992 -2.261689 29.000645 0.020470 -0.436566 5.367157 -0.000001 0.000001 0.000001 0.456436 -7.643908 4.306373 0.107467 -0.995758 12.319380 0.072398 -0.818816 10.104586 -0.000001 0.000001 -0.000003 -11.162424 -10.233661 7.160977 0.029109 -0.520483 6.402977 0.028659 -0.516334 6.351323 -0.000000 -0.000003 0.000003 -86.376792 -12.021479 20.548196 80.423353 -2.939309 -4.286104 8.678070 -5.939138 -9.536920 -0.103120 0.000006 0.000002 -0.000000 0.000000 0.000000 -88.135094 13.645258 -16.491984 81.376902 3.364504 2.591450 9.658816 -0.966987 10.698660 -0.191617 -0.000000 -0.000002 0.000000 0.000001 0.000000 
0.576856 50.555580 20.969646 0.172785 0.033529 0.831163 10.405132 0.141920 -1.478332 -0.259567 0.207828 -0.353516 -0.259876 0.245241 -0.299457 -0.962427 -1.291965 0.502907 -8.673312 -4.291915 -5.369002 -0.000000 0.000000 -0.000000 1.091131 -15.231192 -6.334901 4.162134 -22.256351 -56.186256 0.000020 -61.206138 0.000008 30.408152 4.140906 42.623560 6.609737 1.796790 20.803489 2.713547 20.172544 -24.386535 -5.493476 29.877710 4.917090 0.000000 -0.000000 -0.000001 2.041026 10.867955 -13.921715 0.168600 1.396771 -13.764995 0.107206 1.116791 -10.966111 -0.000000 0.000001 0.000001 1.793377 9.792886 -14.184544 0.206034 1.541538 -15.224971 0.265357 1.744848 -17.293308 0.000002 0.000003 -0.000002 1.299086 7.334250 -16.510616 0.330003 1.940206 -19.303431 0.233127 1.637788 -16.201250 -0.000001 0.000001 0.000006 -0.214217 2.840182 -26.918040 0.396872 2.121379 -21.190442 0.083133 0.984466 -9.653258 0.000001 0.000003 0.000002 3.219362 -4.102626 7.759894 -4.538649 37.596168 64.764011 0.000004 54.535314 0.000015 43.125715 4.712528 -36.970752 -9.385462 -1.635698 -17.610678 3.533196 -24.292235 34.825328 -6.682500 -37.640141 -11.393818 -0.000001 -0.000004 0.000002 3.049985 0.927377 13.532367 0.472440 -2.045667 26.006275 0.059758 -0.744398 9.177825 -0.000003 -0.000003 -0.000002 0.105515 -3.664337 2.525890 0.585011 -2.261720 29.000730 0.020460 -0.436567 5.367099 -0.000001 0.000001 -0.000004 0.454780 -7.621196 4.308760 0.107480 -0.995758 12.319660 0.072395 -0.818833 10.104647 -0.000002 0.000001 -0.000003 -11.251483 -10.242843 7.146178 0.029122 -0.520544 6.403513 0.028646 -0.516346 6.351492 0.000003 -0.000002 0.000007 -86.398198 -12.040713 20.571869 80.478555 -2.945626 -4.287167 8.627349 -5.916035 -9.557929 -0.142959 0.000001 0.000003 -0.000000 -0.000000 -0.000000 -88.159690 13.646443 -16.461007 81.394456 3.344811 2.585870 9.640445 -0.960321 10.703917 -0.205501 -0.000001 -0.000001 0.000000 -0.000000 0.000000 
0.578228 50.542900 20.990669 0.197900 0.003842 0.827428 10.365066 0.138863 -1.479578 -0.349400 0.193540 -0.360978 -0.349721 0.237642 -0.307788 -0.928555 -1.304476 0.537123 -8.448753 -4.315337 -5.369277 -0.000000 0.000000 -0.000000 1.382525 -15.203509 -4.679413 3.548567 -23.413834 -57.536134 -0.000014 -60.131380 -0.000027 29.583646 3.940518 43.514684 6.612965 1.798622 20.797641 2.716419 20.176160 -24.393621 -5.442432 29.915115 4.750979 0.000001 0.000002 -0.000001 2.041466 10.867510 -13.912529 0.168337 1.395704 -13.754054 0.107075 1.116107 -10.959429 -0.000002 -0.000001 0.000003 1.789195 9.777025 -14.184607 0.205744 1.540494 -15.214306 0.265273 1.744546 -17.290354 -0.000001 -0.000001 0.000002 1.299129 7.334418 -16.510577 0.329913 1.939952 -19.300964 0.233144 1.637859 -16.202139 -0.000002 -0.000003 0.000009 -0.191367 2.886344 -26.934317 0.396749 2.121108 -21.187370 0.083125 0.984478 -9.653307 0.000001 0.000002 -0.000003 3.293021 -3.840907 6.691848 -5.235138 37.952769 65.880931 0.000019 53.872516 -0.000003 42.648528 4.769534 -37.328971 -9.378314 -1.659215 -17.616489 3.510372 -24.239052 35.007844 -6.761670 -37.796785 -11.628936 -0.000000 -0.000003 0.000002 3.149850 0.836535 13.511806 0.472649 -2.046056 26.011684 0.059765 -0.744507 9.178908 -0.000001 -0.000001 -0.000001 0.105078 -3.662832 2.507898 0.584968 -2.261655 28.999856 0.020463 -0.436592 5.367345 -0.000001 0.000000 -0.000001 0.451266 -7.595707 4.292395 0.107363 -0.995282 12.313527 0.072369 -0.818685 10.102716 -0.000001 -0.000000 0.000002 -11.352340 -10.246028 7.098860 0.029004 -0.519452 6.390141 0.028622 -0.516053 6.347832 -0.000000 -0.000001 0.000004 -86.415348 -12.071525 20.591055 80.527766 -2.948059 -4.287947 8.582408 -5.903381 -9.588523 -0.144084 -0.000001 0.000006 -0.000000 -0.000000 -0.000000 -88.199831 13.660142 -16.428645 81.418847 3.332470 2.580774 9.630667 -0.958319 10.717695 -0.200430 0.000004 0.000004 0.000000 -0.000000 -0.000000 
0.580483 50.527229 21.010630 0.207069 -0.015677 0.835585 10.311728 0.128824 -1.480025 -0.465813 0.165182 -0.382331 -0.466227 0.213431 -0.329963 -0.874933 -1.332479 0.577048 -8.289801 -4.418532 -5.324439 -0.000000 0.000001 0.000000 1.695403 -15.176699 -2.920614 2.899434 -24.682446 -58.904665 -0.000011 -58.948159 -0.000033 28.587827 3.700566 44.342029 6.614487 1.799307 20.795641 2.718104 20.177458 -24.396036 -5.390688 29.948911 4.573246 0.000001 -0.000000 -0.000002 2.041417 10.867739 -13.910468 0.168274 1.395443 -13.751449 0.107051 1.115965 -10.958038 -0.000000 0.000000 -0.000002 1.785000 9.760719 -14.185330 0.205671 1.540190 -15.211337 0.265254 1.744487 -17.289739 -0.000003 -0.000001 0.000003 1.299220 7.334586 -16.510956 0.329896 1.939899 -19.300545 0.233183 1.637949 -16.203058 0.000001 0.000000 0.000001 -0.161948 2.932579 -26.943968 0.396723 2.121040 -21.186665 0.083136 0.984476 -9.653544 -0.000000 0.000003 0.000001 3.379419 -3.572158 5.557530 -6.078164 38.309824 67.151189 -0.000005 53.077065 0.000030 42.096440 4.950518 -37.643351 -9.374558 -1.682242 -17.632991 3.491273 -24.183591 35.204318 -6.849603 -37.954289 -11.881084 -0.000002 -0.000000 -0.000004 3.256704 0.736902 13.525591 0.472402 -2.045540 26.004649 0.059746 -0.744413 9.177879 -0.000001 -0.000001 -0.000002 0.105721 -3.665313 2.533579 0.585002 -2.261716 29.000775 0.020464 -0.436585 5.367295 -0.000000 0.000002 -0.000004 0.451616 -7.570878 4.320118 0.107513 -0.995951 12.321930 0.072408 -0.818915 10.105479 -0.000002 0.000000 -0.000005 -11.445654 -10.275144 7.139930 0.029171 -0.521018 6.409360 0.028667 -0.516420 6.352750 -0.000000 -0.000005 0.000003 -86.419139 -12.097649 20.598519 80.572661 -2.959983 -4.290313 8.540431 -5.891124 -9.615037 -0.142284 -0.000000 -0.000001 -0.000000 0.000001 0.000000 -88.233647 13.683538 -16.408368 81.458468 3.328524 2.570054 9.616310 -0.958705 10.731592 -0.208696 -0.000006 0.000000 0.000000 -0.000001 0.000000 
